<svg version="1.1" xmlns="http://www.w3.org/2000/svg" xmlns:xlink="http://www.w3.org/1999/xlink" width="48.000000pt" height="48.000000pt" viewBox="0,0,256,256"><g fill="#00eeff" fill-rule="nonzero" stroke="none" stroke-width="1" stroke-linecap="butt" stroke-linejoin="miter" stroke-miterlimit="10" stroke-dasharray="" stroke-dashoffset="0" font-family="none" font-weight="none" font-size="none" text-anchor="none" style="mix-blend-mode: normal"><g transform="translate(0,-0.06072) scale(5.33333,5.33333)"><g transform="translate(0,48) scale(0.1,-0.1)"><path d="M11,466c-17,-20 -10,-81 9,-81c9,0 16,11 18,27c3,21 9,27 30,30c16,2 27,9 27,18c0,21 -68,26 -84,6z"></path><path d="M385,470c-10,-16 4,-30 30,-30c18,0 24,-6 27,-27c2,-17 9,-28 18,-28c19,0 26,61 9,81c-13,16 -75,19 -84,4z"></path><path d="M188,444c-37,-20 -48,-43 -48,-106c0,-36 7,-64 21,-87c32,-53 23,-71 -50,-100c-71,-29 -98,-58 -108,-114l-6,-37h243h243l-6,37c-9,56 -37,85 -108,115c-35,14 -65,34 -67,42c-2,9 6,36 17,59c23,47 28,126 11,158c-13,23 -61,49 -92,49c-13,-1 -35,-7 -50,-16z"></path><path d="M7,274c-13,-13 -7,-71 7,-83c20,-17 81,-10 81,9c0,9 -11,16 -27,18c-20,2 -28,9 -30,29c-3,27 -18,39 -31,27z"></path><path d="M447,274c-4,-4 -7,-18 -7,-30c0,-17 -7,-23 -27,-26c-17,-2 -28,-9 -28,-18c0,-21 68,-26 84,-6c23,28 2,104 -22,80z"></path></g></g></g></svg>